<?xml version="1.0"?><svg width="640" height="480" xmlns="http://www.w3.org/2000/svg">
 <title>bubbles</title>
 <g>
  <title>Layer 1</title>
  <ellipse ry="35.5" rx="36" id="svg_11" cy="140.499998" cx="226" opacity="0.82" stroke-width="3" stroke="#000000" fill="#aaffff"/>
  <text xml:space="preserve" text-anchor="middle" font-family="Arial" font-size="24" id="svg_13" y="207" x="162" opacity="0.82" fill-opacity="0.39" stroke-width="3" stroke="#000000" fill="#aaffff"/>
  <text xml:space="preserve" text-anchor="middle" font-family="Arial" font-size="24" id="svg_14" y="114" x="162" opacity="0.82" fill-opacity="0.39" stroke-width="3" stroke="#000000" fill="#aaffff"/>
  <line id="svg_17" y2="125" x2="242" y1="117" x1="231" opacity="0.82" stroke-width="3" stroke="#000000" fill="#fcfcfc"/>
  <ellipse ry="57" rx="54.500002" id="svg_18" cy="356" cx="258.499998" opacity="0.82" stroke-width="3" stroke="#000000" fill="#aaffff"/>
  <ellipse ry="27" rx="30.999999" id="svg_19" cy="182" cx="164.000002" opacity="0.82" stroke-width="3" stroke="#000000" fill="#aaffff"/>
  <ellipse ry="28" rx="29" id="svg_20" cy="228" cx="256" opacity="0.82" stroke-width="3" stroke="#000000" fill="#aaffff" transform="rotate(1.19349 256 228)"/>
  <line id="svg_21" y2="170" x2="180" y1="163" x1="172" opacity="0.82" stroke-width="3" stroke="#000000" fill="none"/>
  <line id="svg_24" y2="218" x2="270" y1="212" x1="259" opacity="0.82" stroke-width="3" stroke="#000000" fill="none"/>
  <ellipse ry="30" rx="30" id="svg_28" cy="68" cx="198" opacity="0.82" stroke-width="3" stroke="#000000" fill="#aaffff"/>
  <ellipse ry="49.500003" rx="49" id="svg_29" cy="277.500002" cx="154" opacity="0.82" stroke-width="3" stroke="#000000" fill="#aaffff"/>
  <ellipse ry="15" rx="14" id="svg_30" cy="39" cx="275" opacity="0.82" stroke-width="3" stroke="#000000" fill="#aaffff"/>
  <ellipse ry="14" rx="16" id="svg_31" cy="119" cx="147" opacity="0.82" stroke-width="3" stroke="#000000" fill="#aaffff"/>
  <ellipse ry="23" rx="24" id="svg_32" cy="155" cx="297" opacity="0.82" stroke-width="3" stroke="#000000" fill="#aaffff"/>
  <line id="svg_33" y2="56" x2="213" y1="49" x1="203" opacity="0.82" stroke-width="3" stroke="#000000" fill="none"/>
  <line id="svg_34" y2="37" x2="283" y1="30" x1="274" opacity="0.82" stroke-width="3" stroke="#000000" fill="none"/>
  <line id="svg_35" y2="151" x2="313" y1="144" x1="304" opacity="0.82" stroke-width="3" stroke="#000000" fill="#fcfcfc"/>
  <line id="svg_36" y2="122" x2="152" y1="117" x1="148" opacity="0.82" stroke-width="3" stroke="#000000" fill="none" fill-opacity="0.39"/>
  <line id="svg_37" y2="245" x2="177" y1="238" x1="165" opacity="0.82" stroke-width="3" stroke="#000000" fill="none"/>
  <line id="svg_38" y2="336" x2="297" y1="327" x1="295" opacity="0.82" stroke-width="3" stroke="#000000" fill="none"/>
 </g>
</svg>