<?xml version="1.0" encoding="utf-8"?>
<!-- Generator: Adobe Illustrator 16.0.3, SVG Export Plug-In . SVG Version: 6.00 Build 0)  -->
<!DOCTYPE svg PUBLIC "-//W3C//DTD SVG 1.1//EN" "http://www.w3.org/Graphics/SVG/1.1/DTD/svg11.dtd">
<svg version="1.1" id="Layer_1" xmlns="http://www.w3.org/2000/svg" xmlns:xlink="http://www.w3.org/1999/xlink" x="0px" y="0px"
	 width="100px" height="100px" viewBox="0 0 100 100" enable-background="new 0 0 100 100" xml:space="preserve">
<path fill="#FFFFFF" d="M75.261,26.278C75.261,12.32,63.951,1.003,49.997,1C36.038,0.995,24.722,12.31,24.717,26.266l-0.003,10.759
	l6.523,0.001l0.001-10.759c0.003-10.354,8.4-18.749,18.755-18.744c10.355,0.003,18.748,8.399,18.744,18.755l0,0l-0.003,10.758
	l6.523,0.003L75.261,26.278L75.261,26.278z"/>
<path fill="#FFFFFF" d="M62.356,38.502l-24.743-0.004C25.042,38.493,14.848,48.681,14.845,61.25L14.84,74.91
	C14.838,87.484,25.026,97.674,37.6,97.68l24.745,0.008c12.57,0,22.764-10.186,22.767-22.758l0.004-13.658
	C85.118,48.701,74.927,38.503,62.356,38.502z M43.824,75.164l2.893-10.838c-0.184-0.43-0.286-0.898-0.286-1.396
	c0-1.959,1.59-3.547,3.55-3.541c1.959,0,3.544,1.588,3.544,3.547c0,0.496-0.099,0.965-0.281,1.391l2.883,10.84L43.824,75.164z"/>
</svg>
